<svg xmlns="http://www.w3.org/2000/svg" width="32.476" height="22" viewBox="0 0 32.476 22">
  <g id="card" transform="translate(-235 -19.585)">
      <path id="Path_1188" d="M267.476 25.407v-3.928a1.894 1.894 0 0 0-1.894-1.894h-28.688A1.894 1.894 0 0 0 235 21.479v3.929z" fill="#564797" data-name="Path 1188"/>
      <path id="Path_1189" d="M235 49.732v11.806a1.894 1.894 0 0 0 1.894 1.894h28.688a1.894 1.894 0 0 0 1.894-1.894V49.732zm27.449 9.106h-4.211a1.239 1.239 0 1 1 0-2.478h4.211a1.239 1.239 0 0 1 0 2.478z" fill="#564797" data-name="Path 1189" transform="translate(0 -21.847)"/>
  </g>
</svg>
