<svg xmlns="http://www.w3.org/2000/svg" id="daily" width="72.39" height="72.389" viewBox="0 0 72.39 72.389">
    <defs>
        <style>
            .cls-1{fill:#fff}
        </style>
    </defs>
    <g id="Group_593" data-name="Group 593" transform="translate(7.38 7.38)">
        <path id="Path_840" d="M785.315 2019.5a28.815 28.815 0 1 0 28.815 28.815 28.848 28.848 0 0 0-28.815-28.815zm14.252 51.391l-2.164-3.748a1.054 1.054 0 1 0-1.826 1.053l2.165 3.751a26.525 26.525 0 0 1-11.373 3.053v-4.336a1.054 1.054 0 0 0-2.108 0V2075a26.525 26.525 0 0 1-11.373-3.052l2.166-3.751a1.054 1.054 0 1 0-1.826-1.053l-2.164 3.748a26.918 26.918 0 0 1-8.325-8.324l3.749-2.165a1.054 1.054 0 0 0 .386-1.44 1.054 1.054 0 0 0-1.44-.386l-3.751 2.166a26.521 26.521 0 0 1-3.051-11.373h4.335a1.054 1.054 0 1 0 0-2.108h-4.335a26.52 26.52 0 0 1 3.051-11.373l3.751 2.166a1.055 1.055 0 0 0 1.44-.386 1.054 1.054 0 0 0-.386-1.44l-3.749-2.164a26.919 26.919 0 0 1 8.325-8.325l2.164 3.748a1.054 1.054 0 1 0 1.826-1.054l-2.166-3.751a26.528 26.528 0 0 1 11.373-3.051v4.335a1.054 1.054 0 0 0 2.108 0v-4.335a26.528 26.528 0 0 1 11.373 3.051l-2.165 3.751a1.054 1.054 0 1 0 1.826 1.054l2.164-3.748a26.916 26.916 0 0 1 8.325 8.325l-3.748 2.164a1.054 1.054 0 0 0-.386 1.44 1.055 1.055 0 0 0 1.44.386l3.751-2.166a26.522 26.522 0 0 1 3.051 11.372h-4.335a1.054 1.054 0 1 0 0 2.108H812a26.523 26.523 0 0 1-3.051 11.373l-3.751-2.166a1.055 1.055 0 0 0-1.44.386 1.054 1.054 0 0 0 .386 1.44l3.748 2.165a26.914 26.914 0 0 1-8.325 8.325z" class="cls-1" data-name="Path 840" transform="translate(-756.5 -2019.5)"/>
        <path id="Path_841" d="M913.577 2146.248v-8.193a1.054 1.054 0 1 0-2.109 0v8.193a3.153 3.153 0 0 0-1.031.606l-4.343-2.508a1.054 1.054 0 0 0-1.054 1.826l4.366 2.521a3.162 3.162 0 1 0 4.171-2.445z" class="cls-1" data-name="Path 841" transform="translate(-883.708 -2120.484)"/>
    </g>
    <g id="Group_594" data-name="Group 594">
        <path id="Path_842" d="M740.195 2039.39a36.2 36.2 0 0 1-16.479-68.416 1.054 1.054 0 0 1 .963 1.875 34.08 34.08 0 1 0 15.516-3.74 1.054 1.054 0 0 1 0-2.108 36.195 36.195 0 1 1 0 72.389z" class="cls-1" data-name="Path 842" transform="translate(-704 -1967)"/>
        <path id="Path_843" d="M793.764 1996.309a1.036 1.036 0 0 1-.247-.03 1.054 1.054 0 0 1-.779-1.271l1.482-6.167-6.32.533a1.054 1.054 0 0 1-.177-2.1l9.23-.778-2.163 9.006a1.055 1.055 0 0 1-1.026.807z" class="cls-1" data-name="Path 843" transform="translate(-775.124 -1983.755)"/>
    </g>
</svg>
