<svg xmlns="http://www.w3.org/2000/svg" id="hourly" width="72.39" height="72.389" viewBox="0 0 72.39 72.389">
    <defs>
        <style>
            .cls-1{fill:#fff}
        </style>
    </defs>
    <path id="Path_837" d="M187.48 2019.5a29.979 29.979 0 1 0 29.98 29.979 30.013 30.013 0 0 0-29.98-29.979zm19.187 18.9a1.1 1.1 0 0 0 1.5.4l3.9-2.253a27.592 27.592 0 0 1 3.174 11.832h-4.51a1.1 1.1 0 0 0 0 2.194h4.51a27.6 27.6 0 0 1-3.174 11.833l-3.9-2.253a1.1 1.1 0 0 0-1.5.4 1.1 1.1 0 0 0 .4 1.5l3.9 2.252a28.016 28.016 0 0 1-8.661 8.66l-2.252-3.9a1.1 1.1 0 1 0-1.9 1.1l2.253 3.9a27.592 27.592 0 0 1-11.833 3.174v-4.51a1.1 1.1 0 1 0-2.194 0v4.51a27.591 27.591 0 0 1-11.833-3.174l2.253-3.9a1.1 1.1 0 1 0-1.9-1.1l-2.252 3.9a28.016 28.016 0 0 1-8.661-8.66l3.9-2.252a1.1 1.1 0 0 0 .4-1.5 1.1 1.1 0 0 0-1.5-.4l-3.9 2.253a27.6 27.6 0 0 1-3.174-11.833h4.51a1.1 1.1 0 1 0 0-2.194h-4.51a27.591 27.591 0 0 1 3.174-11.832l3.9 2.253a1.1 1.1 0 0 0 1.5-.4 1.1 1.1 0 0 0-.4-1.5l-3.9-2.251a28.006 28.006 0 0 1 8.661-8.661l2.252 3.9a1.1 1.1 0 1 0 1.9-1.1l-2.253-3.9a27.588 27.588 0 0 1 11.833-3.175v4.51a1.1 1.1 0 0 0 2.194 0v-4.51a27.589 27.589 0 0 1 11.833 3.175l-2.253 3.9a1.1 1.1 0 1 0 1.9 1.1l2.252-3.9a28.007 28.007 0 0 1 8.661 8.661l-3.9 2.251a1.1 1.1 0 0 0-.4 1.5z" class="cls-1" data-name="Path 837" transform="translate(-157.5 -2007.07)"/>
    <path id="Path_838" d="M314.944 2146.621v-8.521a1.1 1.1 0 0 0-2.194 0v8.524a3.283 3.283 0 0 0-1.073.63l-4.519-2.609a1.1 1.1 0 1 0-1.1 1.9l4.543 2.623a3.29 3.29 0 1 0 4.339-2.544z" class="cls-1" data-name="Path 838" transform="translate(-283.867 -2107.386)"/>
    <path id="Path_839" d="M387.116 1969.658a1.1 1.1 0 0 0-1.531.247l-2.887 4a37.714 37.714 0 0 0-35.334-34.585l3.923-2.833a1.1 1.1 0 0 0-1.284-1.779l-7.812 5.642 7.812 5.642a1.1 1.1 0 1 0 1.284-1.779l-3.715-2.683a35.519 35.519 0 0 1 32.889 31.981l-2.6-3.6a1.1 1.1 0 0 0-1.778 1.285l5.642 7.812 5.642-7.812a1.1 1.1 0 0 0-.251-1.538z" class="cls-1" data-name="Path 839" transform="translate(-315.181 -1934.499)"/>
</svg>
