<svg xmlns="http://www.w3.org/2000/svg" width="209.439" height="65.672" viewBox="0 0 209.439 65.672">
    <g id="six_nines_logo" transform="translate(-78 -159)">
        <g id="logo_white" transform="translate(78 159)">
            <path id="Path_10" d="M76.43 1.5L74.5 6.877l-.967.358a12.266 12.266 0 0 0-2.9-1.791 7.485 7.485 0 0 0-2.9-.645 4.942 4.942 0 0 0-3.08.985 3.671 3.671 0 0 0-1.493 2.239 2.274 2.274 0 0 0 .824 2.221 17.03 17.03 0 0 0 3.492 2.131 32.233 32.233 0 0 1 3.581 2.113 7.02 7.02 0 0 1 2.22 2.561 6.035 6.035 0 0 1 .43 3.9 9.67 9.67 0 0 1-2.166 4.551 12.034 12.034 0 0 1-4.441 3.277 14.326 14.326 0 0 1-5.963 1.2 19.7 19.7 0 0 1-8.327-1.791l1.79-5.712.752-.358a10.422 10.422 0 0 0 3.581 2.417 9.634 9.634 0 0 0 3.581.842 5.175 5.175 0 0 0 3.277-.985 3.582 3.582 0 0 0 1.522-2.328 2.364 2.364 0 0 0-.627-2.364 19.072 19.072 0 0 0-3.581-2.167 30.728 30.728 0 0 1-3.581-2.041 6.7 6.7 0 0 1-2.167-2.543 6.017 6.017 0 0 1-.376-3.993 9.759 9.759 0 0 1 2.167-4.6 11.855 11.855 0 0 1 4.387-3.17A14.039 14.039 0 0 1 69.267 0a17.5 17.5 0 0 1 7.163 1.5z" fill="#fff" data-name="Path 10" transform="translate(40.818)"/>
            <path id="Path_11" d="M74.019 20.149l-1.361 9.258H66.48l1.791-8.7L71.637.2h6.25z" fill="#fff" data-name="Path 11" transform="translate(51.456 .158)"/>
            <path id="Path_12" d="M92.3 14.168l6.733 15.275h-7.4l-.842-2.9-3.581-7.575-6.66 7.86-1.79 2.579h-6.25L84.4 15.081 77.757.2h7.378l.788 2.955 3.331 7.163 6.053-7.342L97.1.254h6.536z" fill="#fff" data-name="Path 12" transform="translate(55.99 .158)"/>
            <path id="Path_13" d="M76.025 40.653l-1.361 8.954h-6.626L59.6 29.908h-.358l-1.791 9.706-1.59 10.064H50.31l1.79-8.613 3.349-20.593h6.59l8.434 19.7h.394l3.313-19.483 5.73-.376z" fill="#fff" data-name="Path 13" transform="translate(38.856 15.474)"/>
            <path id="Path_14" d="M75.431 40.349l-1.361 9.258h-6.16L69.7 40.9l3.367-20.5h6.25z" fill="#fff" data-name="Path 14" transform="translate(52.563 15.545)"/>
            <path id="Path_15" d="M101.1 40.653l-1.361 8.954h-6.631l-8.434-19.7H84.3l-1.791 9.706-1.596 10.065H75.38l1.791-8.613 3.367-20.593h6.7l8.434 19.7h.412l3.295-19.483 5.748-.376z" fill="#fff" data-name="Path 15" transform="translate(58.217 15.474)"/>
            <path id="Path_16" d="M111.77 44.521l.287.5-1.218 4.584H92.52l1.791-8.7 3.349-20.5h18.5l.287.5-1.271 4.584-6.93-.233h-5.265l-1.379 7.02 5.014.09 4.781-.125.287.448-1.218 4.584-5.139-.143h-4.692l-.591 3.116-.644 4.508h5.121z" fill="#fff" data-name="Path 16" transform="translate(71.291 15.545)"/>
            <path id="Path_17" d="M128.43 21.633l-1.916 5.372-.985.358a12.159 12.159 0 0 0-2.883-1.791 7.629 7.629 0 0 0-2.9-.645 4.907 4.907 0 0 0-3.08.985 3.581 3.581 0 0 0-1.486 2.238 2.22 2.22 0 0 0 .806 2.221 17.282 17.282 0 0 0 3.492 2.2 32.236 32.236 0 0 1 3.581 2.113 7.163 7.163 0 0 1 2.221 2.561 5.927 5.927 0 0 1 .412 3.9 9.472 9.472 0 0 1-2.149 4.548 12.178 12.178 0 0 1-4.441 3.277 14.487 14.487 0 0 1-5.963 1.2 19.7 19.7 0 0 1-8.327-1.791l1.791-5.712.752-.358a10.172 10.172 0 0 0 3.581 2.417 9.724 9.724 0 0 0 3.689.842 5.372 5.372 0 0 0 3.277-.967 3.743 3.743 0 0 0 1.522-2.346 2.4 2.4 0 0 0-.788-2.364 19.7 19.7 0 0 0-3.581-2.167 29.333 29.333 0 0 1-3.582-2.041 6.733 6.733 0 0 1-2.185-2.543 6.017 6.017 0 0 1-.394-3.85 9.6 9.6 0 0 1 2.167-4.6 11.783 11.783 0 0 1 4.369-3.241 14.093 14.093 0 0 1 5.838-1.254 17.442 17.442 0 0 1 7.162 1.438z" fill="#fff" data-name="Path 17" transform="translate(81.009 15.387)"/>
            <path id="Path_18" d="M65.9 39.4H0l.949-5.43h65.917z" fill="#42e8e0" data-name="Path 18" transform="translate(0 26.276)"/>
            <path id="Path_19" d="M66.649 35.166H.75l.95-5.426h65.9z" fill="#42e8e0" data-name="Path 19" transform="translate(.593 22.931)"/>
            <path id="Path_20" d="M67.407 30.936H1.49l.967-5.426h65.9z" fill="#42e8e0" data-name="Path 20" transform="translate(1.178 19.732)"/>
            <path id="Path_21" d="M68.139 26.706H2.24l.949-5.426h65.917z" fill="#fff" data-name="Path 21" transform="translate(1.771 16.46)"/>
            <path id="Path_22" d="M68.9 22.476H2.98l.967-5.426h65.9z" fill="#fff" data-name="Path 22" transform="translate(2.356 13.188)"/>
            <path id="Path_23" d="M69.629 18.246H3.73l.949-5.426H70.6z" fill="#fff" data-name="Path 23" transform="translate(2.949 9.916)"/>
            <path id="Path_24" d="M70.387 14.016H4.47l.967-5.426h65.9z" fill="#fff" data-name="Path 24" transform="translate(3.535 6.645)"/>
            <path id="Path_25" d="M71.119 9.786H5.22l.949-5.426h65.917z" fill="#fff" data-name="Path 25" transform="translate(4.128 3.448)"/>
            <path id="Path_26" d="M71.869 5.556H5.97L6.919.13h65.9z" fill="#fff" data-name="Path 26" transform="translate(4.721 .103)"/>
        </g>
    </g>
</svg>
