<svg xmlns="http://www.w3.org/2000/svg" width="140.458" height="140" viewBox="0 0 140.458 140">
    <defs>
        <style>
            .cls-1{fill:url(#radial-gradient)}.cls-2{fill:url(#linear-gradient)}.cls-3{fill:#fff}
        </style>
        <radialGradient id="radial-gradient" cx="-.387" cy=".13" r=".739" gradientTransform="matrix(.815 .698 2.885 -2.6 -.448 .74)">
            <stop offset="0"/>
            <stop offset="1" stop-color="#fff"/>
        </radialGradient>
        <linearGradient id="linear-gradient" x1="2.667" x2="3.009" y1="9.175" y2="8.715" gradientUnits="objectBoundingBox">
            <stop offset="0" stop-color="#fff"/>
            <stop offset="1" stop-color="#fff" stop-opacity="0"/>
        </linearGradient>
    </defs>
    <g id="octane_logo" transform="translate(-19.013 45)">
        <g id="g4175" transform="translate(36.385 -45)">
            <path id="path4347" d="M169.276 57.47c-17.483 19.635-24.164 30.218-25.553 46.077-.079-.041-.148-.071-.229-.115-6.426-3.685-11.565-11.162-14.635-18.807l-11.262 4.4c8.255 24.934 14.141 35.92 27.154 45.047-.084.054-.141.116-.229.171-6.4 3.722-15.454 4.48-23.61 3.316l-1.829 11.947c25.771 5.329 38.259 5.776 52.707-.972.006.1 0 .181 0 .286.023 7.407-3.888 15.585-8.975 22.066l9.433 7.546c17.461-19.611 24.1-30.191 25.5-46.019.081.041.145.07.229.115 6.426 3.685 11.565 11.162 14.635 18.807l11.262-4.4c-8.257-24.939-14.134-35.975-27.154-45.1.085-.055.139-.115.229-.171 6.4-3.722 15.454-4.423 23.61-3.258l1.829-12c-25.738-5.322-38.226-5.749-52.65.972-.006-.1 0-.186 0-.286-.022-7.407 3.889-15.585 8.975-22.066l-9.432-7.545zm.972 44.476a16.015 16.015 0 1 1-15.491 16.521 16.022 16.022 0 0 1 15.491-16.521z" class="cls-1" transform="translate(-116.975 -56.812)"/>
            <path id="path4116" d="M169.138 56.809a.645.645 0 0 0-.342.229c-17.127 19.234-23.95 29.994-25.554 45.447-5.963-3.686-10.84-10.808-13.777-18.121a.648.648 0 0 0-.849-.347h-.009l-11.262 4.4a.648.648 0 0 0-.342.8c8.084 24.417 14.094 35.6 26.639 44.7-6.18 3.358-14.81 4.09-22.638 2.973a.648.648 0 0 0-.739.542v.029l-1.829 11.948a.648.648 0 0 0 .514.743c25.224 5.215 37.951 5.655 52.136-.686-.208 7.008-3.936 14.777-8.8 20.98a.648.648 0 0 0 .109.91h.006l9.432 7.546a.648.648 0 0 0 .914-.057c17.083-19.186 23.815-30 25.439-45.39 5.979 3.68 10.893 10.795 13.834 18.121a.647.647 0 0 0 .8.343l11.262-4.4a.647.647 0 0 0 .4-.8c-8.085-24.42-14.089-35.654-26.639-44.761 6.178-3.351 14.809-4.034 22.638-2.916a.647.647 0 0 0 .686-.572l1.829-12a.648.648 0 0 0-.457-.743c-25.164-5.2-37.936-5.607-52.078.687.191-7.021 3.868-14.821 8.747-21.037a.649.649 0 0 0-.115-.858l-9.432-7.546a.646.646 0 0 0-.514-.171zm.228 1.543l8.461 6.8c-4.952 6.476-8.768 14.459-8.745 21.895a.545.545 0 0 0 0 .057c0 .045-.009.126 0 .286a.647.647 0 0 0 .667.628.633.633 0 0 0 .247-.057c14.152-6.593 26.4-6.2 51.621-1.029l-1.6 10.8c-8.095-1.059-16.943-.369-23.381 3.373h-.057a1.383 1.383 0 0 0-.229.171.649.649 0 0 0-.189.9.661.661 0 0 0 .189.189c12.778 8.96 18.568 19.752 26.7 44.19l-10.123 3.945c-3.131-7.537-8.177-14.82-14.634-18.522v-.057c-.1-.054-.219-.08-.286-.115a.65.65 0 0 0-.915.515c-1.374 15.536-7.829 25.965-24.925 45.219l-8.574-6.8c4.976-6.487 8.883-14.493 8.86-21.952 0-.055.009-.127 0-.286a.647.647 0 0 0-.972-.571c-14.186 6.625-26.382 6.223-51.678 1.029l1.6-10.747c8.113 1.067 16.987.32 23.438-3.43l.286-.171a.648.648 0 0 0 .189-.9.663.663 0 0 0-.189-.189c-12.773-8.959-18.57-19.7-26.7-44.132l10.119-4c3.13 7.552 8.164 14.868 14.635 18.578.1.054.163.139.229.171a.648.648 0 0 0 .972-.571c1.367-15.563 7.868-25.94 24.985-45.217zm.858 42.932a16.673 16.673 0 1 0 17.207 16.121 16.7 16.7 0 0 0-17.206-16.12zm.057 1.314a15.357 15.357 0 1 1-14.863 15.836 15.349 15.349 0 0 1 14.864-15.834z" class="cls-2" transform="translate(-116.968 -56.805)"/>
            <path id="path4099" d="M177.121 63.916a1.3 1.3 0 0 0-.8.514c-5 6.614-8.865 14.767-8.86 22.637V87.239a2.464 2.464 0 0 0 0 .285 1.316 1.316 0 1 0 2.63-.114.972.972 0 0 1 0-.115v-.171c-.021-7.024 3.514-14.778 8.288-21.095a1.3 1.3 0 0 0-1.258-2.114zm-48.934 20.693a1.3 1.3 0 0 0-1.029 1.829c3.235 7.647 8.362 15.112 15.206 19.037h.057l.056.056a1.317 1.317 0 0 0 .229.057c.037.021.075.04.114.057a1.3 1.3 0 0 0 1.029-2.344c-.1-.053-.092-.072-.171-.115h-.057c-.023-.013-.035-.044-.057-.056a.542.542 0 0 0-.057 0c-6.034-3.509-10.88-10.469-13.948-17.722a1.3 1.3 0 0 0-1.372-.799zm69.457 48.134c.1.052.091.071.172.115.019 0 .1.029.056 0s-.629-.306-.228-.115zm-52.478.858l-.4.114s-.18.081-.23.115a1.3 1.3 0 0 0-.114.171l-.057.057a1.117 1.117 0 0 0-.115.057c-6.056 3.443-14.5 4.168-22.295 3.2a1.326 1.326 0 1 0-.347 2.629c8.251 1.023 17.245.307 24.067-3.659.02-.018.039-.038.057-.057.05-.031.068-.081.114-.114s.082-.031.115-.057a1.862 1.862 0 0 0 .286-.286 1.163 1.163 0 0 0 .229-.4c.023-.061.114-.227.114-.229v-.286l-.114-.514-.229-.286-.343-.286-.4-.114-.343-.057zm27.382 13.606a1.3 1.3 0 0 0-1.086 1.371 1.006 1.006 0 0 1 0 .115v.171c.021 7.024-3.515 14.778-8.288 21.095a1.3 1.3 0 0 0 2.058 1.6c5-6.615 8.865-14.767 8.86-22.638v-.057-.114a2.692 2.692 0 0 0 0-.286 1.3 1.3 0 0 0-1.543-1.258z" class="cls-3" transform="translate(-117.005 -56.88)"/>
        </g>
        <g id="g4184" transform="translate(19.013 75.539)">
            <path id="path4186" d="M264.008 92.9v2.9l-1.339-.022h-.369v2.289h1.706v6.847a3.931 3.931 0 0 0 1.49 3.24v.022a5.061 5.061 0 0 0 3.218.994h.368v-2.419h-.368a1.963 1.963 0 0 1-1.49-.5 1.73 1.73 0 0 1-.5-1.3v-6.89h2.354v-2.285h-2.348V92.9h-2.721zm38.857 2.656a4.962 4.962 0 0 0-3.823 1.663 7.63 7.63 0 0 0-1.642 5.249 7.027 7.027 0 0 0 1.793 5.162 5.491 5.491 0 0 0 4.039 1.555 5.758 5.758 0 0 0 4.277-1.987l.259-.259-.259-.259-1.145-1.145-.281-.281-.259.3a3.163 3.163 0 0 1-2.57 1.209 2.548 2.548 0 0 1-2.074-.907 4.567 4.567 0 0 1-.842-2.7h7.495v-1.376a7.037 7.037 0 0 0-1.447-4.687 4.529 4.529 0 0 0-3.521-1.534zm-58.015.022a4.965 4.965 0 0 0-3.866 1.62 7.617 7.617 0 0 0-1.577 5.205 7.487 7.487 0 0 0 1.577 5.162 4.9 4.9 0 0 0 3.866 1.6 4.983 4.983 0 0 0 3.8-1.534v-.021a7.456 7.456 0 0 0 1.642-5.206 7.49 7.49 0 0 0-1.62-5.227 4.978 4.978 0 0 0-3.823-1.6zm12.376 0a4.757 4.757 0 0 0-3.8 1.642 7.879 7.879 0 0 0-1.512 5.205 7.486 7.486 0 0 0 1.577 5.162 4.758 4.758 0 0 0 3.736 1.6 5.16 5.16 0 0 0 4.018-1.814l.216-.259-.237-.238-1.145-1.145-.281-.281-.259.3a2.766 2.766 0 0 1-2.311 1.08 1.912 1.912 0 0 1-1.814-1.015 6.889 6.889 0 0 1-.648-3.391 7.059 7.059 0 0 1 .648-3.434 1.911 1.911 0 0 1 1.814-1.037 2.622 2.622 0 0 1 1.944.864l.259.259.259-.259 1.145-1.145.237-.237-.216-.259a4.756 4.756 0 0 0-3.63-1.595zm18.9 0a8.055 8.055 0 0 0-3.737.886l-.3.151.129.324.648 1.555.173.41.367-.259a4.47 4.47 0 0 1 2.527-.691 1.851 1.851 0 0 1 1.447.5 2.24 2.24 0 0 1 .475 1.577v1.123a7.12 7.12 0 0 0-2.289-.367 5.254 5.254 0 0 0-3.3 1.08 3.851 3.851 0 0 0-1.555 3.175 3.891 3.891 0 0 0 1.361 3.175 4.952 4.952 0 0 0 3.2.972 4.435 4.435 0 0 0 2.765-.95 2.029 2.029 0 0 0 .216.6l.108.151h2.764l-.173-.5c-.087-.253-.164-.438-.216-.583s-.067-.23-.065-.216v-.022a16.35 16.35 0 0 1-.065-1.814v-5.745a4.668 4.668 0 0 0-1.123-3.391 4.534 4.534 0 0 0-3.348-1.145zm14.1 0a5.363 5.363 0 0 0-3.153 1.145V95.8h-2.722V109h2.722v-9.488a4.143 4.143 0 0 1 2.981-1.469 1.662 1.662 0 0 1 1.555.627 3.868 3.868 0 0 1 .367 1.944v8.38h2.743v-8.38c0-1.894-.439-3.3-1.4-4.126a4.564 4.564 0 0 0-3.09-.907zm-45.376 2.336a2.069 2.069 0 0 1 1.944 1.037 6.8 6.8 0 0 1 .691 3.456 6.632 6.632 0 0 1-.691 3.413 2.369 2.369 0 0 1-3.888 0 6.65 6.65 0 0 1-.691-3.413 6.812 6.812 0 0 1 .691-3.456 2.059 2.059 0 0 1 1.944-1.037zm58.015.043a1.632 1.632 0 0 1 1.533.756 6.058 6.058 0 0 1 .562 2.311h-4.579a4.848 4.848 0 0 1 .735-2.268 2.015 2.015 0 0 1 1.749-.799zm-26.956 5.143a5.166 5.166 0 0 1 1.944.324v2.354a3.174 3.174 0 0 1-2.268 1.08 2.344 2.344 0 0 1-1.555-.432 1.514 1.514 0 0 1-.475-1.253 1.94 1.94 0 0 1 .562-1.555 2.626 2.626 0 0 1 1.792-.518z" class="cls-3" transform="translate(-239.407 -89.728)"/>
            <path id="path4188" d="M476.3 84.409v8.273l-.627-.6A4.025 4.025 0 0 0 472.712 91a3.488 3.488 0 0 0-2.765 1.339 6.775 6.775 0 0 0-1.425 4.6 7.228 7.228 0 0 0 1.425 4.9 3.6 3.6 0 0 0 2.894 1.253 3.726 3.726 0 0 0 2.83-.972l.627-.648v1.469h1.253V84.409zm-29.55 6.566a4.117 4.117 0 0 0-3.262 1.4 6.937 6.937 0 0 0-1.468 4.773 6.28 6.28 0 0 0 1.58 4.652 4.7 4.7 0 0 0 3.521 1.339 4.883 4.883 0 0 0 3.434-1.555l-.6-.6a3.932 3.932 0 0 1-2.808 1.21 3.373 3.373 0 0 1-2.635-1.166 5.493 5.493 0 0 1-1.08-3.542v-.043h7.538v-.972a6.3 6.3 0 0 0-1.253-4.212 3.681 3.681 0 0 0-2.967-1.284zm39.7 0a4.116 4.116 0 0 0-3.261 1.4 6.935 6.935 0 0 0-1.469 4.773 6.274 6.274 0 0 0 1.555 4.644 4.749 4.749 0 0 0 3.542 1.339 4.884 4.884 0 0 0 3.434-1.555l-.6-.6a3.932 3.932 0 0 1-2.808 1.21 3.373 3.373 0 0 1-2.635-1.166 5.493 5.493 0 0 1-1.08-3.542v-.046h7.538v-.969a6.3 6.3 0 0 0-1.253-4.212 3.681 3.681 0 0 0-2.959-1.274zm-48.6.021a2.883 2.883 0 0 0-2.354.886l-.648.691v-1.382H433.6v11.75h1.253V93.7l.065-.108a3.281 3.281 0 0 1 2.743-1.6 4.007 4.007 0 0 1 1.4.345l.475-.842a3.647 3.647 0 0 0-1.685-.5zm22.744 0a4.594 4.594 0 0 0-3.24 1.339l-.626.583v-1.705h-1.274v11.728h1.274V93.87l.108-.108a4.9 4.9 0 0 1 3.607-1.771 2.423 2.423 0 0 1 2.16.972 4.312 4.312 0 0 1 .475 2.333v7.646h1.274V95.3c0-1.78-.415-2.942-1.145-3.564a3.9 3.9 0 0 0-2.612-.736zm39.159 0a3.191 3.191 0 0 0-2.449 1.019l-.532.575v-1.4H495.5v11.75h1.274V93.7l.065-.108a3.251 3.251 0 0 1 2.721-1.6 4.006 4.006 0 0 1 1.4.345l.5-.842a3.74 3.74 0 0 0-1.707-.5zm-53 .907a2.436 2.436 0 0 1 2.138 1.1 6.41 6.41 0 0 1 .756 3.046l.022.389h-6.242l.022-.389a5.666 5.666 0 0 1 .972-3.046 2.851 2.851 0 0 1 2.333-1.1zm39.7 0a2.436 2.436 0 0 1 2.138 1.1 6.4 6.4 0 0 1 .756 3.046l.022.389h-6.242l.022-.389a5.668 5.668 0 0 1 .972-3.046 2.851 2.851 0 0 1 2.333-1.1zm-13.8.086a2.637 2.637 0 0 1 .389 0 3.709 3.709 0 0 1 3.2 1.642l.065.108v6.782l-.043.086a3.292 3.292 0 0 1-2.959 1.555 3 3 0 0 1-2.484-1.123 6.681 6.681 0 0 1-.907-4 7.831 7.831 0 0 1 .648-3.542 2.656 2.656 0 0 1 2.095-1.512z" class="cls-3" transform="translate(-361.001 -84.409)"/>
        </g>
    </g>
</svg>
