<svg xmlns="http://www.w3.org/2000/svg" width="240" height="59.537" viewBox="0 0 240 59.537">
    <defs>
        <style>
            .cls-1{fill:url(#radial-gradient)}.cls-2{fill:url(#linear-gradient)}.cls-3{fill:#fff}
        </style>
        <radialGradient id="radial-gradient" cx="-.387" cy=".13" r=".739" gradientTransform="matrix(.815 .698 2.885 -2.6 -.448 .74)">
            <stop offset="0"/>
            <stop offset="1" stop-color="#fff"/>
        </radialGradient>
        <linearGradient id="linear-gradient" x1="2.667" x2="3.009" y1="9.175" y2="8.715" gradientUnits="objectBoundingBox">
            <stop offset="0" stop-color="#fff"/>
            <stop offset="1" stop-color="#fff" stop-opacity="0"/>
        </linearGradient>
    </defs>
    <g id="octane_logo">
        <g id="g4175">
            <path id="path4347" d="M142.761 57.47c-8.513 9.561-11.761 14.714-12.442 22.436-.039-.02-.072-.035-.111-.056-3.129-1.794-5.631-5.435-7.126-9.157l-5.482 2.142c4.019 12.141 6.885 17.49 13.222 21.934-.041.027-.068.056-.111.083-3.118 1.812-7.525 2.181-11.5 1.614l-.891 5.817c12.549 2.595 18.629 2.813 25.664-.473v.139c.011 3.607-1.893 7.589-4.37 10.744l4.593 3.674c8.5-9.549 11.733-14.7 12.414-22.408.04.02.071.034.111.056 3.129 1.794 5.631 5.435 7.126 9.157l5.484-2.143c-4.02-12.143-6.882-17.517-13.222-21.962.041-.027.067-.056.111-.083 3.118-1.812 7.525-2.153 11.5-1.586l.891-5.845c-12.532-2.591-18.613-2.8-25.636.473v-.139c-.011-3.607 1.894-7.589 4.37-10.744l-4.593-3.674zm.473 21.656a7.8 7.8 0 1 1-7.543 8.045 7.8 7.8 0 0 1 7.543-8.045z" class="cls-1" transform="translate(-117.295 -57.15)"/>
            <path id="path4116" d="M142.371 56.807a.314.314 0 0 0-.167.111c-8.339 9.366-11.662 14.6-12.443 22.129-2.9-1.795-5.278-5.263-6.708-8.824a.316.316 0 0 0-.413-.169l-5.488 2.146a.315.315 0 0 0-.167.39c3.936 11.889 6.863 17.335 12.971 21.767-3.009 1.635-7.211 1.992-11.023 1.448a.315.315 0 0 0-.36.264v.014l-.891 5.818a.315.315 0 0 0 .251.362c12.282 2.539 18.479 2.753 25.386-.334-.1 3.412-1.916 7.2-4.287 10.215a.316.316 0 0 0 .053.443l4.593 3.674a.316.316 0 0 0 .445-.028c8.318-9.342 11.6-14.609 12.387-22.1 2.911 1.792 5.3 5.256 6.736 8.824a.315.315 0 0 0 .39.167l5.484-2.143a.315.315 0 0 0 .195-.39c-3.937-11.891-6.86-17.361-12.971-21.795 3.008-1.632 7.211-1.964 11.023-1.42a.315.315 0 0 0 .334-.278l.891-5.845a.315.315 0 0 0-.223-.362c-12.253-2.534-18.472-2.73-25.358.334.093-3.419 1.883-7.216 4.259-10.243a.316.316 0 0 0-.056-.418l-4.593-3.674a.315.315 0 0 0-.251-.083zm.111.752l4.12 3.312c-2.411 3.153-4.269 7.041-4.258 10.661a.267.267 0 0 0 0 .028v.139a.315.315 0 0 0 .325.306.308.308 0 0 0 .12-.028c6.891-3.21 12.855-3.021 25.135-.5l-.779 5.261c-3.941-.515-8.25-.18-11.385 1.642h-.028a.678.678 0 0 0-.111.083.316.316 0 0 0-.092.437.322.322 0 0 0 .092.092c6.222 4.363 9.041 9.618 13 21.517l-4.927 1.921c-1.524-3.67-3.981-7.216-7.125-9.019v-.028c-.05-.026-.106-.039-.139-.056a.316.316 0 0 0-.446.251c-.669 7.565-3.812 12.643-12.136 22.018l-4.175-3.312c2.423-3.158 4.325-7.057 4.314-10.689v-.139a.315.315 0 0 0-.473-.278c-6.908 3.226-12.846 3.03-25.163.5l.779-5.233c3.951.519 8.272.156 11.413-1.67.081-.051.134-.08.139-.083a.316.316 0 0 0 .092-.437.322.322 0 0 0-.092-.092c-6.22-4.362-9.042-9.593-13-21.489l4.927-1.948c1.524 3.677 3.975 7.24 7.126 9.046.049.026.079.067.111.083a.316.316 0 0 0 .473-.278c.663-7.577 3.828-12.632 12.163-22.018zm.418 20.9a8.118 8.118 0 1 0 8.378 7.849 8.129 8.129 0 0 0-8.378-7.845zm.028.64a7.478 7.478 0 1 1-7.237 7.711 7.474 7.474 0 0 1 7.237-7.71z" class="cls-2" transform="translate(-116.968 -56.805)"/>
            <path id="path4099" d="M148.048 63.9a.63.63 0 0 0-.39.251c-2.434 3.221-4.317 7.19-4.314 11.022v.083a1.19 1.19 0 0 0 0 .139.641.641 0 1 0 1.281-.055.473.473 0 0 1 0-.056V75.2c-.01-3.42 1.711-7.2 4.036-10.271a.631.631 0 0 0-.612-1.03zm-23.827 10.076a.631.631 0 0 0-.5.891c1.575 3.724 4.071 7.358 7.4 9.269h.028l.027.027a.644.644 0 0 0 .112.028l.055.028a.631.631 0 0 0 .5-1.141c-.051-.026-.045-.035-.083-.056h-.028c-.011-.006-.017-.021-.028-.027h-.028c-2.938-1.709-5.3-5.1-6.792-8.629a.631.631 0 0 0-.668-.39zm38.524 5.567a14.856 14.856 0 0 0-5.6 1.782l-.027.028c-.037.023-.052.058-.084.083a.9.9 0 0 0-.167.139.442.442 0 0 0-.111.167.638.638 0 0 0-.028.111c-.005.027-.028.111-.028.111l.028.195.055.139.111.167.2.111.195.055.278-.055.111-.056a.62.62 0 0 0 .083-.083c.011-.006.018-.022.028-.028a.177.177 0 0 0 .028 0c2.951-1.691 7.074-2.033 10.884-1.559a.646.646 0 1 0 .169-1.28 24.712 24.712 0 0 0-6.124-.028zm-9.6 9.77a.632.632 0 0 0-.557.668 7.624 7.624 0 0 1-7.376 7.877.641.641 0 1 0 .053 1.281 8.935 8.935 0 0 0 8.6-9.213.632.632 0 0 0-.643-.619.641.641 0 0 0-.08.006zm5.094 6.9a.631.631 0 0 0-.2 1.2c.051.026.044.035.084.056h.027l.028.027h.028c2.939 1.709 5.3 5.1 6.792 8.629a.636.636 0 1 0 1.17-.5c-1.575-3.724-4.071-7.358-7.4-9.269h-.028c-.017-.009-.014-.021-.028-.028a.638.638 0 0 0-.111-.028l-.056-.028a.631.631 0 0 0-.306-.055zm-25.748 1.614l-.195.055s-.088.04-.112.056a.643.643 0 0 0-.055.083l-.028.028a.548.548 0 0 0-.056.028c-2.949 1.677-7.06 2.029-10.856 1.559a.646.646 0 1 0-.169 1.28c4.017.5 8.4.149 11.719-1.782l.028-.028c.025-.015.033-.04.055-.055s.04-.015.056-.028a.906.906 0 0 0 .139-.139.566.566 0 0 0 .111-.195c.011-.03.055-.11.055-.111v-.139l-.055-.251-.111-.139-.167-.139-.195-.055-.167-.028zm13.333 6.625a.631.631 0 0 0-.529.668.477.477 0 0 1 0 .056v.083c.01 3.42-1.711 7.2-4.036 10.271a.635.635 0 0 0 1 .78c2.434-3.221 4.317-7.19 4.314-11.023v-.028-.055a1.318 1.318 0 0 0 0-.139.631.631 0 0 0-.752-.612z" class="cls-3" transform="translate(-118.776 -60.474)"/>
        </g>
        <g id="g4184" transform="translate(58.987 13.299)">
            <path id="path4186" d="M271.111 92.9v3.73l-1.726-.028h-.473v2.95h2.2v8.824a5.066 5.066 0 0 0 1.921 4.175v.028a6.522 6.522 0 0 0 4.147 1.281h.474v-3.118h-.474a2.53 2.53 0 0 1-1.92-.64 2.229 2.229 0 0 1-.64-1.67v-8.88h3.034V96.6h-3.034v-3.7h-3.507zm50.076 3.423a6.394 6.394 0 0 0-4.927 2.143c-1.433 1.607-2.115 3.876-2.115 6.764a9.055 9.055 0 0 0 2.311 6.652 7.077 7.077 0 0 0 5.205 2 7.421 7.421 0 0 0 5.511-2.561l.334-.334-.334-.334-1.475-1.475-.362-.362-.334.39a4.077 4.077 0 0 1-3.312 1.559 3.284 3.284 0 0 1-2.672-1.169 5.885 5.885 0 0 1-1.085-3.479h9.659v-1.782a9.069 9.069 0 0 0-1.865-6.04 5.836 5.836 0 0 0-4.539-1.969zm-74.765.028a6.4 6.4 0 0 0-4.982 2.088c-1.377 1.552-2.032 3.8-2.032 6.708 0 2.885.653 5.121 2.032 6.653a6.313 6.313 0 0 0 4.982 2.06 6.422 6.422 0 0 0 4.9-1.977v-.027c1.412-1.532 2.115-3.793 2.115-6.709s-.668-5.184-2.088-6.736a6.416 6.416 0 0 0-4.927-2.06zm15.949 0a6.13 6.13 0 0 0-4.9 2.115c-1.311 1.552-1.948 3.806-1.948 6.708 0 2.885.653 5.121 2.032 6.653a6.132 6.132 0 0 0 4.815 2.06 6.649 6.649 0 0 0 5.178-2.338l.278-.334-.306-.306-1.475-1.475-.362-.362-.334.39a3.565 3.565 0 0 1-2.978 1.392 2.465 2.465 0 0 1-2.338-1.308 8.878 8.878 0 0 1-.835-4.37 9.1 9.1 0 0 1 .835-4.426 2.463 2.463 0 0 1 2.338-1.336 3.379 3.379 0 0 1 2.505 1.113l.334.334.334-.334 1.475-1.475.306-.306-.278-.334a6.13 6.13 0 0 0-4.676-2.058zm24.356 0a10.381 10.381 0 0 0-4.816 1.141l-.389.195.167.418.835 2 .223.529.473-.334a5.76 5.76 0 0 1 3.257-.891 2.385 2.385 0 0 1 1.865.64 2.887 2.887 0 0 1 .612 2.032v1.447a9.176 9.176 0 0 0-2.95-.473 6.771 6.771 0 0 0-4.259 1.392 4.963 4.963 0 0 0-2 4.092 5.015 5.015 0 0 0 1.754 4.092 6.382 6.382 0 0 0 4.12 1.253 5.716 5.716 0 0 0 3.563-1.225 2.613 2.613 0 0 0 .278.779l.139.195h3.563l-.223-.64c-.112-.327-.211-.564-.278-.752-.061-.171-.086-.3-.083-.278v-.028a21.049 21.049 0 0 1-.083-2.338v-7.4a6.016 6.016 0 0 0-1.447-4.37 5.844 5.844 0 0 0-4.315-1.475zm18.176 0a6.912 6.912 0 0 0-4.064 1.475v-1.2h-3.507v17.014h3.507v-12.22a5.34 5.34 0 0 1 3.841-1.893 2.141 2.141 0 0 1 2 .807 4.984 4.984 0 0 1 .473 2.505v10.8h3.535v-10.8c0-2.441-.566-4.257-1.81-5.317a5.881 5.881 0 0 0-3.978-1.168zm-58.482 3.006a2.667 2.667 0 0 1 2.505 1.336 8.758 8.758 0 0 1 .891 4.453 8.547 8.547 0 0 1-.891 4.4 3.052 3.052 0 0 1-5.01 0 8.57 8.57 0 0 1-.891-4.4 8.779 8.779 0 0 1 .891-4.453 2.654 2.654 0 0 1 2.506-1.332zm74.765.055a2.1 2.1 0 0 1 1.976.975 7.808 7.808 0 0 1 .724 2.978h-5.9a6.249 6.249 0 0 1 .947-2.923 2.6 2.6 0 0 1 2.254-1.026zm-34.738 6.625a6.656 6.656 0 0 1 2.505.418v3.034a4.09 4.09 0 0 1-2.923 1.391 3.021 3.021 0 0 1-2-.556 1.951 1.951 0 0 1-.613-1.614 2.5 2.5 0 0 1 .724-2 3.384 3.384 0 0 1 2.307-.669z" class="cls-3" transform="translate(-239.407 -88.811)"/>
            <path id="path4188" d="M488.626 84.409V95.07l-.807-.78a5.188 5.188 0 0 0-3.813-1.392 4.5 4.5 0 0 0-3.563 1.726 8.732 8.732 0 0 0-1.837 5.929c0 2.884.648 4.981 1.837 6.318a4.645 4.645 0 0 0 3.73 1.614 4.8 4.8 0 0 0 3.647-1.253l.807-.835v1.893h1.614V84.409zm-38.079 8.462a5.306 5.306 0 0 0-4.2 1.809c-1.238 1.388-1.892 3.414-1.892 6.152 0 2.688.7 4.655 2.032 5.985a6.051 6.051 0 0 0 4.537 1.726 6.292 6.292 0 0 0 4.426-2l-.779-.78a5.068 5.068 0 0 1-3.619 1.559 4.347 4.347 0 0 1-3.4-1.5 7.079 7.079 0 0 1-1.392-4.565v-.055h9.714v-1.261a8.121 8.121 0 0 0-1.614-5.428 4.744 4.744 0 0 0-3.812-1.642zm51.161 0a5.3 5.3 0 0 0-4.2 1.809c-1.239 1.388-1.893 3.414-1.893 6.152 0 2.692.676 4.657 2 5.985a6.12 6.12 0 0 0 4.565 1.726 6.294 6.294 0 0 0 4.426-2l-.78-.78a5.068 5.068 0 0 1-3.619 1.559 4.347 4.347 0 0 1-3.4-1.5 7.08 7.08 0 0 1-1.392-4.565v-.059h9.714v-1.257a8.119 8.119 0 0 0-1.614-5.428 4.744 4.744 0 0 0-3.813-1.642zm-62.628.029a3.715 3.715 0 0 0-3.034 1.141l-.835.891v-1.783H433.6v15.143h1.614V96.378l.083-.139a4.228 4.228 0 0 1 3.535-2.06 5.165 5.165 0 0 1 1.81.445l.612-1.085a4.7 4.7 0 0 0-2.171-.64zm29.31 0a5.92 5.92 0 0 0-4.176 1.726l-.807.752v-2.2h-1.642v15.115h1.642V96.6l.139-.139a6.317 6.317 0 0 1 4.648-2.283 3.123 3.123 0 0 1 2.784 1.253 5.557 5.557 0 0 1 .612 3.006v9.854h1.642v-9.853c0-2.294-.534-3.792-1.475-4.593a5.032 5.032 0 0 0-3.367-.945zm50.465 0a4.112 4.112 0 0 0-3.156 1.313l-.686.741v-1.8h-1.642v15.143h1.642V96.378l.084-.139a4.19 4.19 0 0 1 3.507-2.06 5.165 5.165 0 0 1 1.81.445l.64-1.085a4.821 4.821 0 0 0-2.2-.64zm-68.308 1.169a3.14 3.14 0 0 1 2.756 1.419 8.26 8.26 0 0 1 .974 3.925l.028.5h-8.045l.028-.5a7.3 7.3 0 0 1 1.253-3.925 3.674 3.674 0 0 1 3.006-1.419zm51.161 0a3.139 3.139 0 0 1 2.756 1.419 8.255 8.255 0 0 1 .974 3.925l.028.5h-8.045l.028-.5a7.3 7.3 0 0 1 1.253-3.925 3.674 3.674 0 0 1 3.006-1.419zm-17.787.111a3.4 3.4 0 0 1 .5 0 4.78 4.78 0 0 1 4.12 2.115l.084.139v8.74l-.056.111a4.243 4.243 0 0 1-3.813 2 3.867 3.867 0 0 1-3.2-1.447c-.834-1.113-1.169-2.814-1.169-5.15a10.093 10.093 0 0 1 .835-4.565 3.423 3.423 0 0 1 2.7-1.948z" class="cls-3" transform="translate(-340.042 -84.409)"/>
        </g>
    </g>
</svg>
