<svg xmlns="http://www.w3.org/2000/svg" width="25.3" height="25.299" viewBox="0 0 25.3 25.299">
    <g id="remote_access" transform="translate(-316.098 -9.026)">
        <g id="Group_559" data-name="Group 559" transform="translate(316.248 9.176)">
            <g id="Group_552" data-name="Group 552">
                <g id="Group_551" data-name="Group 551">
                    <path id="Path_755" d="M533.426 149.308v13.349c0 .585.005 1.171 0 1.753a2.016 2.016 0 0 1-.016.253c.011-.079.019-.154.029-.233a2.082 2.082 0 0 1-.1.411l.08-.21a1.859 1.859 0 0 1-.131.268c-.107.178.11-.131.021-.026-.032.038-.062.076-.094.111s-.067.067-.1.1c-.1.1.185-.14.024-.023a1.646 1.646 0 0 1-.247.143l.193-.087a1.456 1.456 0 0 1-.378.114l.214-.032a4.939 4.939 0 0 1-.718.017h-19.781a1.737 1.737 0 0 1-.244-.017l.214.032a1.681 1.681 0 0 1-.378-.114l.193.087a1.643 1.643 0 0 1-.247-.143c-.163-.117.121.119.024.023-.035-.035-.07-.067-.1-.1s-.062-.073-.094-.111c-.089-.108.129.2.021.026a1.862 1.862 0 0 1-.131-.268l.08.21a1.805 1.805 0 0 1-.1-.411l.03.233a4.97 4.97 0 0 1-.016-.6v-12.97c0-.591-.005-1.182 0-1.773a2.025 2.025 0 0 1 .016-.253l-.03.233a2.075 2.075 0 0 1 .1-.411l-.08.21a1.866 1.866 0 0 1 .131-.268c.107-.178-.11.131-.021.026.032-.038.062-.076.094-.111s.067-.067.1-.1c.1-.1-.185.14-.024.023a1.631 1.631 0 0 1 .247-.143l-.193.087a1.468 1.468 0 0 1 .378-.114l-.214.032a4.94 4.94 0 0 1 .719-.017h19.776a1.756 1.756 0 0 1 .244.017l-.214-.032a1.687 1.687 0 0 1 .378.114l-.193-.087a1.634 1.634 0 0 1 .247.143c.163.116-.121-.119-.024-.023.035.035.07.067.1.1s.062.073.094.111c.089.108-.129-.2-.021-.026a1.862 1.862 0 0 1 .131.268l-.08-.21a1.8 1.8 0 0 1 .1.411c-.011-.079-.019-.154-.029-.233a1.839 1.839 0 0 1 .016.242.807.807 0 1 0 1.608 0 2.626 2.626 0 0 0-1.2-2.222 2.271 2.271 0 0 0-1.18-.326h-20.261a2.347 2.347 0 0 0-2.019 1.252 2.823 2.823 0 0 0-.324 1.343v15.15a2.6 2.6 0 0 0 1.241 2.167 2.357 2.357 0 0 0 1.139.3h20.284a2.347 2.347 0 0 0 2.035-1.316 2.894 2.894 0 0 0 .292-1.284V149.3a.851.851 0 0 0-.8-.874.86.86 0 0 0-.811.882z" fill="#fff" stroke="#fff" stroke-width=".3px" data-name="Path 755" transform="translate(-510.049 -146.758)"/>
                </g>
            </g>
            <g id="Group_554" data-name="Group 554" transform="translate(8.921 18.44)">
                <g id="Group_553" data-name="Group 553">
                    <path id="Path_756" d="M592.547 289.37v4.783l.886-.886h-5.373l.886.886v-4.783l-.886.886h5.373a.886.886 0 1 0 0-1.771h-5.373a.9.9 0 0 0-.886.886v4.783a.9.9 0 0 0 .886.886h5.373a.9.9 0 0 0 .886-.886v-4.784a.886.886 0 0 0-1.771 0z" fill="#fff" stroke="#fff" stroke-width=".3px" data-name="Path 756" transform="translate(-587.174 -288.484)"/>
                </g>
            </g>
            <g id="Group_556" data-name="Group 556" transform="translate(4.936 23.218)">
                <g id="Group_555" data-name="Group 555">
                    <path id="Path_757" d="M557.878 326.439h11.7c.537 0 1.078.012 1.618 0h.024a.886.886 0 1 0 0-1.771h-11.7c-.537 0-1.078-.012-1.618 0h-.023a.886.886 0 1 0 0 1.771z" fill="#fff" stroke="#fff" stroke-width=".3px" data-name="Path 757" transform="translate(-556.992 -324.662)"/>
                </g>
            </g>
            <g id="Group_558" data-name="Group 558" transform="translate(.013 14.137)">
                <g id="Group_557" data-name="Group 557">
                    <path id="Path_758" d="M533.51 256.268v2.424a4.262 4.262 0 0 1-.016.49l.03-.236a2.139 2.139 0 0 1-.1.416l.08-.213a1.906 1.906 0 0 1-.131.272c-.107.18.11-.133.021-.027-.032.038-.062.077-.094.112s-.067.068-.1.1c-.1.1.185-.142.024-.024a1.628 1.628 0 0 1-.247.145l.193-.089a1.447 1.447 0 0 1-.378.115l.214-.033a4.872 4.872 0 0 1-.719.018h-19.781a1.732 1.732 0 0 1-.244-.018l.214.033a1.67 1.67 0 0 1-.378-.115l.193.089a1.631 1.631 0 0 1-.247-.145c-.163-.118.121.121.024.024-.035-.035-.07-.068-.1-.1s-.062-.074-.094-.112c-.089-.109.129.2.022.027a1.907 1.907 0 0 1-.132-.272l.081.213a1.847 1.847 0 0 1-.1-.416l.03.236a9.112 9.112 0 0 1-.016-1.048v-1.866l-.8.886H534.336a.89.89 0 0 0 0-1.771h-23.388a.86.86 0 0 0-.8.886v2.486a3.2 3.2 0 0 0 .123 1.01 2.539 2.539 0 0 0 1.185 1.491 2.319 2.319 0 0 0 1.054.269h20.141a2.36 2.36 0 0 0 2.372-1.8 3.326 3.326 0 0 0 .113-.989v-2.471a.858.858 0 0 0-.8-.886.868.868 0 0 0-.826.889z" fill="#fff" stroke="#fff" stroke-width=".3px" data-name="Path 758" transform="translate(-510.144 -255.379)"/>
                </g>
            </g>
        </g>
    </g>
</svg>
