<svg xmlns="http://www.w3.org/2000/svg" width="195.414" height="100" viewBox="0 0 195.414 100">
    <defs>
        <style>
            .cls-1{fill:#fff}.cls-2{fill:rgba(255,33,33,.4)}.cls-3{fill:rgba(255,33,33,.52)}.cls-4{fill:rgba(255,33,33,.77)}.cls-5{fill:rgba(255,33,33,.83)}.cls-6{fill:rgba(255,33,33,.93)}.cls-7{fill:rgba(255,33,33,.9)}.cls-8{fill:rgba(255,33,33,.78)}.cls-9{fill:rgba(255,33,33,.63)}.cls-10{fill:rgba(255,33,33,.86)}
        </style>
    </defs>
    <g id="redshift_logo" transform="translate(-208.177 68)">
        <g id="Group_650" data-name="Group 650" transform="translate(208.178 16.744)">
            <path id="Path_864" d="M547.132 478.081l-3.562-5.826a4.161 4.161 0 0 0 3.06-4.212c0-2.829-2.054-4.631-5.491-4.631h-4.464v14.669h1.718v-5.47h2.745c.252 0 .524 0 .755-.021l3.311 5.49zm-8.739-7v-6.056h2.913c2.242 0 3.563 1.153 3.563 3.018 0 1.76-1.216 3.038-3.563 3.038z" class="cls-1" data-name="Path 864" transform="translate(-536.675 -463.119)"/>
            <path id="Path_865" d="M717.175 476.467v-5.386h6.475v-1.529h-6.475v-4.527h8.068v-1.613h-9.787v14.669h9.912v-1.613z" class="cls-1" data-name="Path 865" transform="translate(-689.182 -463.119)"/>
            <path id="Path_866" d="M893.366 463.412v14.669h5.386c3.961 0 6.853-2.808 6.853-7.25 0-4.484-2.955-7.418-7-7.418zm1.676 13.076V465h3.625c2.976 0 5.218 2.137 5.218 5.826 0 3.541-2.158 5.658-5.072 5.658z" class="cls-1" data-name="Path 866" transform="translate(-840.901 -463.119)"/>
            <path id="Path_867" d="M1094.694 464.266a5.072 5.072 0 0 0-5.239-3.919c-2.934 0-5.092 1.7-5.092 3.981 0 2.535 2.472 3.29 4.149 3.814 2.075.649 4.61 1.09 4.61 3.227 0 1.53-1.321 2.683-3.5 2.683a3.745 3.745 0 0 1-4-3.206l-1.656.44a5.289 5.289 0 0 0 5.6 4.317c3.227 0 5.364-1.8 5.364-4.275 0-2.85-2.787-3.772-4.841-4.38-1.949-.587-3.982-1.09-3.982-2.7 0-1.467 1.362-2.389 3.29-2.389a3.52 3.52 0 0 1 3.667 2.85l1.635-.44z" class="cls-1" data-name="Path 867" transform="translate(-1004.093 -460.347)"/>
            <path id="Path_868" d="M1284.965 463.412v6.265h-8.026v-6.265h-1.718v14.669h1.718v-6.79h8.026v6.79h1.7v-14.669z" class="cls-1" data-name="Path 868" transform="translate(-1167.881 -463.119)"/>
            <path id="Rectangle_520" d="M0 0h1.718v14.669H0z" class="cls-1" data-name="Rectangle 520" transform="translate(138.529 .294)"/>
            <path id="Path_869" d="M1650.456 465.025v-1.613h-9.577v14.669h1.718v-6.538h6.266v-1.551h-6.263v-4.966z" class="cls-1" data-name="Path 869" transform="translate(-1480.215 -463.119)"/>
            <path id="Path_870" d="M1798.434 463.412v1.613h4.9v13.055h1.7v-13.055h4.924v-1.613z" class="cls-1" data-name="Path 870" transform="translate(-1614.546 -463.119)"/>
        </g>
        <g id="Group_651" data-name="Group 651" transform="translate(275.122 -68)">
            <path id="Path_871" d="M238.371 325.99l-30.546-17.085v17.085l15.272 8.542z" class="cls-2" data-name="Path 871" transform="translate(-177.275 -308.905)"/>
            <path id="Path_872" d="M1.239 325.99l30.546-17.085v17.085l-15.273 8.542-15.273-8.542z" class="cls-3" data-name="Path 872" transform="translate(-1.235 -308.905)"/>
            <path id="Path_873" d="M223.1 432.994l-15.272 8.542v-17.085z" class="cls-4" data-name="Path 873" transform="translate(-177.275 -407.366)"/>
            <path id="Path_874" d="M104.529 432.994l15.273 8.542v-17.085z" class="cls-5" data-name="Path 874" transform="translate(-89.253 -407.366)"/>
            <path id="Path_875" d="M207.825 557.085V540l15.272 8.542-15.272 8.542z" class="cls-6" data-name="Path 875" transform="translate(-177.275 -505.83)"/>
            <path id="Path_876" d="M119.8 557.085V540l-15.273 8.542z" class="cls-7" data-name="Path 876" transform="translate(-89.253 -505.83)"/>
            <path id="Path_877" d="M31.758 623.373v-17.085l-15.273-8.542-15.273 8.542z" class="cls-8" data-name="Path 877" transform="translate(-1.212 -555.038)"/>
            <path id="Path_878" d="M326.388 540v17.085l-15.273-8.542z" class="cls-9" data-name="Path 878" transform="translate(-265.293 -505.83)"/>
            <path id="Path_879" d="M1.239 540v17.085l15.273-8.542z" class="cls-9" data-name="Path 879" transform="translate(-1.235 -505.83)"/>
            <path id="Path_880" d="M238.343 490.769l-15.273-8.542-15.27 8.542 15.273 8.542z" class="cls-10" data-name="Path 880" transform="translate(-177.252 -456.6)"/>
            <path id="Path_881" d="M1.239 490.765l15.276-8.538 15.273 8.542-15.277 8.538-15.272-8.542z" class="cls-10" data-name="Path 881" transform="translate(-1.235 -456.6)"/>
            <path id="Path_882" d="M326.388 424.451v17.085l-15.273-8.542z" class="cls-9" data-name="Path 882" transform="translate(-265.293 -407.366)"/>
            <path id="Path_883" d="M1.252 424.451v17.085l15.273-8.542z" class="cls-9" data-name="Path 883" transform="translate(-1.246 -407.366)"/>
            <path id="Path_884" d="M207.825 623.4v-17.085l15.272-8.542 15.273 8.542-30.545 17.085z" class="cls-5" data-name="Path 884" transform="translate(-177.275 -555.061)"/>
        </g>
    </g>
</svg>
