<svg xmlns="http://www.w3.org/2000/svg" width="95" height="115" viewBox="0 0 95 115">
    <g id="render_icon" transform="rotate(90 229.833 29.833)">
        <g id="Group_409" data-name="Group 409" transform="translate(200 164.666)">
            <path id="Path_536" d="M206.347 208.535a5.635 5.635 0 0 1 3.17-.969h1.683v18.379h-7.357v-12.706a5.628 5.628 0 0 1 .446-2.2 10.675 10.675 0 0 1 2.058-2.504zm3.17 39.624a5.641 5.641 0 0 1-2.206-.446 5.726 5.726 0 0 1-2.5-2.061 5.625 5.625 0 0 1-.97-3.167v-12.7h7.359v18.379zm93.672 4.2a5.723 5.723 0 0 1-2.062 2.5 5.635 5.635 0 0 1-3.169.969h-4.5v-4.567a1.919 1.919 0 0 0-3.838 0v4.567h-7.34v-4.567a1.919 1.919 0 0 0-3.838 0v4.567h-7.34v-4.567a1.919 1.919 0 0 0-3.838 0v4.567h-7.34v-4.567a1.919 1.919 0 0 0-3.839 0v4.567H251.9a5.638 5.638 0 0 1-2.205-.446 5.723 5.723 0 0 1-2.5-2.061 5.622 5.622 0 0 1-.97-3.167v-3.8h57.414v3.8a5.629 5.629 0 0 1-.446 2.2zm-98.989-1.992a9.479 9.479 0 0 0 5.32 1.628h1.68v2.956a1.919 1.919 0 0 0 3.839 0v-8.593h27.347v3.8a9.52 9.52 0 0 0 9.516 9.51h46.058a9.518 9.518 0 0 0 9.516-9.51v-3.8h.811a6.713 6.713 0 0 0 6.713-6.713v-51.779a6.714 6.714 0 0 0-6.717-6.713h-46.039a1.918 1.918 0 1 0 0 3.836h46.039a2.865 2.865 0 0 1 1.12.226 2.9 2.9 0 0 1 1.268 1.044 2.85 2.85 0 0 1 .49 1.607v51.779a2.855 2.855 0 0 1-.226 1.12 2.9 2.9 0 0 1-1.045 1.267 2.857 2.857 0 0 1-1.608.49h-93.248v-57.533h34.415a1.918 1.918 0 1 0 0-3.836h-34.415v-12.571a3.919 3.919 0 0 0-3.918-3.916h-6.4a1.918 1.918 0 1 0 0 3.836h6.4a.066.066 0 0 1 .029.005.091.091 0 0 1 .038.033.065.065 0 0 1 .013.042v12.571h-6.477a1.918 1.918 0 1 0 0 3.836h6.481v18.741h-1.679a9.517 9.517 0 0 0-9.521 9.509v29.246a9.5 9.5 0 0 0 4.2 7.882z"  fill="#564797" data-name="Path 536" transform="translate(-200 -164.666)"/>
            <path id="Path_537" d="M288.466 394.1a1.973 1.973 0 0 1-.711.862 1.963 1.963 0 0 1-1.854.18 1.973 1.973 0 0 1-.863-.711 1.965 1.965 0 0 1-.18-1.854 1.979 1.979 0 0 1 .711-.863 1.962 1.962 0 0 1 1.854-.18 1.973 1.973 0 0 1 .863.711 1.965 1.965 0 0 1 .18 1.854zm1.478-5.625a5.862 5.862 0 1 0 2.124 2.58 5.851 5.851 0 0 0-2.124-2.58z"  fill="#564797" data-name="Path 537" transform="translate(-257.615 -323.633)"/>
            <path id="Path_538" d="M288.466 250.155a1.974 1.974 0 0 1-.711.863 1.963 1.963 0 0 1-1.854.18 1.971 1.971 0 0 1-.863-.711 1.964 1.964 0 0 1-.18-1.854 1.977 1.977 0 0 1 .711-.863 1.963 1.963 0 0 1 1.854-.18 1.971 1.971 0 0 1 .863.711 1.964 1.964 0 0 1 .18 1.854zm3.6-3.046a5.874 5.874 0 1 0 .462 2.285 5.878 5.878 0 0 0-.462-2.285z"  fill="#564797" data-name="Path 538" transform="translate(-257.615 -220.931)"/>
            <path id="Path_539" d="M402.02 305a16.558 16.558 0 0 1-5.423 2.385c.078-.279.149-.559.211-.836a18.976 18.976 0 0 0 .423-4.079 24.582 24.582 0 0 0-.463-4.659 33.85 33.85 0 0 0-.111-.534 7.23 7.23 0 0 0 3.311-6.085v-.044l.081-.015a20.9 20.9 0 0 1 3.573-.319 15.565 15.565 0 0 1 3.412.356 11.071 11.071 0 0 1 2.31.788A16.609 16.609 0 0 1 402.02 305zm-23.114-4.5a16.573 16.573 0 0 1-2.3-5.086c.2.051.4.1.593.141a18.524 18.524 0 0 0 3.886.394 24.282 24.282 0 0 0 4.952-.533c.243-.051.468-.1.675-.152a7.233 7.233 0 0 0 6 3.185h.194l.042.212a20.679 20.679 0 0 1 .372 3.814 15.121 15.121 0 0 1-.331 3.236 10.994 10.994 0 0 1-.7 2.131 16.618 16.618 0 0 1-13.386-7.337zm-24.046 2.011a5.835 5.835 0 0 1-2.55-2.1 5.742 5.742 0 0 1-.988-3.229v-4.033h12a1.955 1.955 0 1 0 0-3.911h-12v-4.033a5.74 5.74 0 0 1 .454-2.247 5.834 5.834 0 0 1 2.1-2.549 5.742 5.742 0 0 1 3.229-.988h18.753c-.064.092-.131.183-.194.276a20.477 20.477 0 0 0-3.512 11.5c0 .43.015.858.041 1.282v.04a20.4 20.4 0 0 0 3.662 10.451h-18.749a5.729 5.729 0 0 1-2.247-.454zm34.64-27.657c-.146.45-.271.9-.374 1.348a19.956 19.956 0 0 0-.482 4.469 25.042 25.042 0 0 0 .336 4.039l.041.238a7.243 7.243 0 0 0-3.566 6.245c0 .115 0 .23.009.345l-.338.073a20.38 20.38 0 0 1-4.044.428 14.653 14.653 0 0 1-3.063-.307 10.848 10.848 0 0 1-1.957-.614 16.649 16.649 0 0 1 13.438-16.264zm6.3 17.646a3.364 3.364 0 0 1-1.214 1.473 3.352 3.352 0 0 1-3.17.308 3.368 3.368 0 0 1-1.474-1.214 3.353 3.353 0 0 1-.308-3.17 3.368 3.368 0 0 1 1.214-1.474 3.354 3.354 0 0 1 3.17-.308 3.365 3.365 0 0 1 1.474 1.214 3.353 3.353 0 0 1 .308 3.17zm10.724-10.609a16.549 16.549 0 0 1 2.461 5.757q-.544-.163-1.085-.286a19.455 19.455 0 0 0-4.273-.453 24.823 24.823 0 0 0-4.354.4c-.135.024-.264.049-.386.073a7.243 7.243 0 0 0-6.061-3.435 21.1 21.1 0 0 1-.263-3.268 16.1 16.1 0 0 1 .382-3.591 11.221 11.221 0 0 1 .884-2.5 16.541 16.541 0 0 1 5.37 1.27 16.719 16.719 0 0 1 7.327 6.034zm6.747 8.839a20.554 20.554 0 0 0-20.554-20.091h-.036a20.456 20.456 0 0 0-13.255 4.876h-22.32a9.7 9.7 0 0 0-9.7 9.695v11.976a9.7 9.7 0 0 0 9.7 9.7h22.312a20.5 20.5 0 0 0 13.294 4.877c.282 0 .562-.007.842-.019h.058a20.553 20.553 0 0 0 19.66-20.539c0-.14 0-.279-.005-.419v-.05z"  fill="#564797" data-name="Path 539" transform="translate(-306.395 -240.628)"/>
        </g>
    </g>
</svg>
