<svg xmlns="http://www.w3.org/2000/svg" width="20" height="20" viewBox="0 0 20 20">
    <g id="facebook" transform="translate(0 -2.052)">
        <path id="facebook-2" d="M70.848 35.317h-17.5a1.25 1.25 0 0 0-1.25 1.25v17.5a1.25 1.25 0 0 0 1.25 1.25h9.375v-7.5h-2.5v-3.125h2.5v-1.875c0-2.574 1.453-4.375 3.75-4.375h2.5v3.125h-1.25a1.658 1.658 0 0 0-1.875 1.875v1.25h3.125l-.625 3.125h-2.5v7.5h5a1.25 1.25 0 0 0 1.25-1.25v-17.5a1.25 1.25 0 0 0-1.25-1.25z" style="fill:currentColor" data-name="facebook" transform="translate(-52.098 -33.265)"/>
    </g>
</svg>
