<svg xmlns="http://www.w3.org/2000/svg" width="35.052" height="20" viewBox="0 0 35.052 20">
    <g id="vk" transform="translate(0 -109.924)">
        <g id="Group_302" data-name="Group 302" transform="translate(0 109.924)">
            <path id="Path_303" d="M34.74 127.763c-.094-.158-.677-1.424-3.481-4.027-2.936-2.726-2.541-2.283.995-7 2.154-2.87 3.015-4.623 2.745-5.372-.256-.714-1.84-.526-1.84-.526l-5.267.031a1.2 1.2 0 0 0-.681.12 1.484 1.484 0 0 0-.464.565 30.511 30.511 0 0 1-1.948 4.11c-2.346 3.985-3.286 4.2-3.67 3.948-.892-.576-.668-2.318-.668-3.554 0-3.863.585-5.473-1.141-5.889a9.041 9.041 0 0 0-2.46-.245 11.379 11.379 0 0 0-4.373.447c-.6.294-1.063.949-.78.986a2.362 2.362 0 0 1 1.556.782 5.075 5.075 0 0 1 .521 2.386s.311 4.546-.725 5.111c-.712.388-1.687-.4-3.779-4.02a33.719 33.719 0 0 1-1.882-3.9 1.556 1.556 0 0 0-.434-.585 2.184 2.184 0 0 0-.811-.326l-5.008.031s-.751.022-1.028.348c-.245.291-.02.892-.02.892s3.922 9.173 8.361 13.8a12.031 12.031 0 0 0 8.7 3.961h2.095a1.766 1.766 0 0 0 .955-.418 1.526 1.526 0 0 0 .287-.92s-.042-2.811 1.264-3.225c1.286-.408 2.938 2.717 4.689 3.92a3.316 3.316 0 0 0 2.329.71l4.682-.066s2.441-.149 1.281-2.075z" style="fill:currentColor" data-name="Path 303" transform="translate(0 -109.924)"/>
        </g>
    </g>
</svg>
