<svg xmlns="http://www.w3.org/2000/svg" width="73.551" height="72.39" viewBox="0 0 73.551 72.39">
    <defs>
        <style>
            .cls-1{fill:#fff}
        </style>
    </defs>
    <g id="support">
        <path id="Path_851" d="M2153.62 2101.97a5.749 5.749 0 0 0-4.741-5.653 13.084 13.084 0 0 0-13.017-11.915h-.006a12.908 12.908 0 0 0-9.229 3.9 13.146 13.146 0 0 0-3.774 8.044 5.742 5.742 0 0 0 .854 11.361l1.008.05v-10.18a11.214 11.214 0 0 1 11.143-11.252 11.16 11.16 0 0 1 11.148 11.149l.025 12.57a1.353 1.353 0 0 1-1.353 1.356h-4.578a3.571 3.571 0 0 0-3.393-2.472h-3.985a3.565 3.565 0 0 0 0 7.131h3.985a3.572 3.572 0 0 0 3.467-2.739h4.513a3.272 3.272 0 0 0 3.272-3.28v-2.428a5.75 5.75 0 0 0 4.661-5.642z" class="cls-1" data-name="Path 851" transform="translate(-2098.567 -2068.189)"/>
        <path id="Path_852" d="M2003.995 2162.934a31.009 31.009 0 0 1-32.966-38.226l1.561 3.653a.96.96 0 1 0 1.765-.754l-3.314-7.754-6.318 5.584a.96.96 0 1 0 1.271 1.438l3.229-2.853a33.161 33.161 0 0 0-.133 15.49 32.9 32.9 0 0 0 32.07 25.47c1 0 2-.044 3.008-.136a.96.96 0 0 0-.172-1.912z" class="cls-1" data-name="Path 852" transform="translate(-1964.398 -2099.101)"/>
        <path id="Path_853" d="M2205.184 1995.275a.96.96 0 0 0-1.355-.084l-3.037 2.684a33.162 33.162 0 0 0-.038-14.638 32.963 32.963 0 0 0-43.679-23.446.96.96 0 0 0 .672 1.8 31.027 31.027 0 0 1 41.146 36l-1.66-3.884a.96.96 0 1 0-1.765.754l2.625 6.142a.957.957 0 0 0 .3.7l.393.917 6.319-5.584a.96.96 0 0 0 .079-1.361z" class="cls-1" data-name="Path 853" transform="translate(-2131.873 -1957.702)"/>
        <path id="Path_854" d="M2007.639 1975.558a10.074 10.074 0 0 0 6.763 2.6h.059a10.1 10.1 0 0 0 7.2-3.038l1.894-1.931-2.344-1.369a7.016 7.016 0 0 1-2.6-9.575c.1-.179.215-.356.333-.526l1.553-2.23-2.547-.944a10.108 10.108 0 0 0-13.6 8.488c-.034.388-.05.706-.05 1s.016.619.052 1.031a10.076 10.076 0 0 0 3.287 6.494zm-1.373-8.348a8.187 8.187 0 0 1 11.016-6.866l.224.083-.136.2c-.15.215-.293.441-.424.669a8.936 8.936 0 0 0 3.3 12.191l.21.123-.172.175a8.174 8.174 0 0 1-5.827 2.46h-.059a8.142 8.142 0 0 1-8.134-7.354c-.03-.344-.044-.615-.044-.854s.018-.506.046-.827z" class="cls-1" data-name="Path 854" transform="translate(-1999.198 -1957.879)"/>
        <path id="Path_855" d="M2391.049 2302.292a.96.96 0 1 0 1.919 0v-3.967a.96.96 0 0 0-1.919 0z" class="cls-1" data-name="Path 855" transform="translate(-2336.449 -2253.898)"/>
        <path id="Path_856" d="M2392.009 2477.366a.96.96 0 0 0-.96.959v3.967a.96.96 0 1 0 1.919 0v-3.967a.959.959 0 0 0-.959-.959z" class="cls-1" data-name="Path 856" transform="translate(-2336.449 -2410.863)"/>
        <path id="Path_857" d="M2291.936 2403.326a.96.96 0 0 0-.96-.96h-3.967a.96.96 0 1 0 0 1.92h3.967a.96.96 0 0 0 .96-.96z" class="cls-1" data-name="Path 857" transform="translate(-2244.887 -2345.461)"/>
        <path id="Path_858" d="M2469.976 2402.366h-3.967a.96.96 0 0 0 0 1.92h3.967a.96.96 0 0 0 0-1.92z" class="cls-1" data-name="Path 858" transform="translate(-2400.979 -2345.461)"/>
        <path id="Path_859" d="M2318.088 2328.548a.96.96 0 0 0-1.358 1.357l2.805 2.8a.96.96 0 0 0 1.357-1.357z" class="cls-1" data-name="Path 859" transform="translate(-2271.397 -2280.844)"/>
        <path id="Path_860" d="M2445.367 2455.826a.96.96 0 0 0-1.357 1.357l2.8 2.805a.96.96 0 0 0 1.357-1.357z" class="cls-1" data-name="Path 860" transform="translate(-2382.388 -2391.835)"/>
        <path id="Path_861" d="M2319.536 2455.119l-2.805 2.8a.96.96 0 0 0 1.358 1.358l2.8-2.805a.959.959 0 0 0-1.357-1.357z" class="cls-1" data-name="Path 861" transform="translate(-2271.397 -2391.218)"/>
        <path id="Path_862" d="M2444.66 2332.71l2.8-2.8a.96.96 0 0 0-1.358-1.357l-2.8 2.8a.96.96 0 0 0 1.357 1.357z" class="cls-1" data-name="Path 862" transform="translate(-2381.771 -2280.844)"/>
        <path id="Path_863" d="M2363.668 2373.122a5.119 5.119 0 1 0 5.119 5.119 5.124 5.124 0 0 0-5.119-5.119zm0 8.318a3.2 3.2 0 1 1 3.2-3.2 3.2 3.2 0 0 1-3.2 3.2z" class="cls-1" data-name="Path 863" transform="translate(-2308.109 -2319.96)"/>
    </g>
</svg>
