<svg xmlns="http://www.w3.org/2000/svg" width="25.3" height="21.729" viewBox="0 0 25.3 21.729">
  <path id="Path_1157" data-name="Path 1157" d="M105.271,3.574H83.4A2.231,2.231,0,0,0,81.171,5.8V22.768A2.232,2.232,0,0,0,83.4,25h20.09a.893.893,0,0,0,.893-.893V22.322h.888a.893.893,0,0,0,.9-.886V4.466a.893.893,0,0,0-.894-.892ZM102.6,23.214H83.4a.447.447,0,1,1,0-.893H102.6Zm.893-2.678H83.4a2.373,2.373,0,0,0-.446,0V5.8a.447.447,0,0,1,.446-.446h20.98V9.823H96.348a.893.893,0,0,0-.893.893v5.357a.893.893,0,0,0,.893.893h8.035v3.571Zm.893-5.357H97.241v-3.57h7.142Z" transform="translate(-81.021 -3.424)" fill="#fff" stroke="#fff" stroke-width="0.3"/>
</svg>
